<svg width="100" height="100" viewBox="0 0 100 100" fill="none" xmlns="http://www.w3.org/2000/svg">
<path d="M26.7133 30.6431C31.5805 30.6431 35.7932 32.496 39.3514 36.2017C42.928 39.889 44.7164 44.4981 44.7164 50.029C44.7164 55.7258 42.9188 60.4547 39.3237 64.2158C35.7286 67.9768 31.3777 69.8573 26.2708 69.8573C21.1086 69.8573 16.7668 68.0229 13.2455 64.354C9.74258 60.6852 7.99113 55.9378 7.99113 50.1119C7.99113 44.157 10.0191 39.299 14.0751 35.538C17.5965 32.2748 21.8092 30.6431 26.7133 30.6431ZM26.1878 32.6619C22.8324 32.6619 20.1407 33.9064 18.1127 36.3953C15.5869 39.4926 14.324 44.0279 14.324 50.0013C14.324 56.1222 15.633 60.8327 18.251 64.1328C20.2605 66.6401 22.9154 67.8938 26.2155 67.8938C29.7368 67.8938 32.6406 66.5203 34.9267 63.7733C37.2312 61.0263 38.3835 56.6937 38.3835 50.7756C38.3835 44.3598 37.1206 39.5756 34.5948 36.4229C32.5668 33.9156 29.7645 32.6619 26.1878 32.6619ZM53.4453 29.6752V63.2755C53.4453 64.861 53.5559 65.9119 53.7771 66.4281C54.0168 66.9443 54.3763 67.3407 54.8556 67.6173C55.335 67.8754 56.2292 68.0044 57.5381 68.0044V69H45.1212V68.0044C46.2827 68.0044 47.0755 67.8846 47.4995 67.6449C47.9236 67.4053 48.2554 67.0089 48.4951 66.4558C48.7348 65.9027 48.8546 64.8426 48.8546 63.2755V40.2669C48.8546 37.4093 48.7901 35.6578 48.661 35.0126C48.532 34.3488 48.3199 33.8972 48.025 33.6575C47.7484 33.4178 47.3889 33.298 46.9464 33.298C46.4671 33.298 45.8587 33.4455 45.1212 33.7404L44.6511 32.7725L52.2008 29.6752H53.4453ZM62.9761 29.6752C63.7505 29.6752 64.4049 29.9518 64.9396 30.5049C65.4927 31.0395 65.7692 31.694 65.7692 32.4683C65.7692 33.2427 65.4927 33.9064 64.9396 34.4595C64.4049 35.0126 63.7505 35.2891 62.9761 35.2891C62.2018 35.2891 61.5381 35.0126 60.985 34.4595C60.4319 33.9064 60.1554 33.2427 60.1554 32.4683C60.1554 31.694 60.4227 31.0395 60.9573 30.5049C61.5104 29.9518 62.1834 29.6752 62.9761 29.6752ZM65.2715 42.9218V63.2755C65.2715 64.861 65.3821 65.9211 65.6033 66.4558C65.843 66.972 66.1841 67.3592 66.6265 67.6173C67.0874 67.8754 67.9171 68.0044 69.1154 68.0044V69H56.8092V68.0044C58.0444 68.0044 58.874 67.8846 59.2981 67.6449C59.7221 67.4053 60.054 67.0089 60.2936 66.4558C60.5517 65.9027 60.6808 64.8426 60.6808 63.2755V53.5134C60.6808 50.7664 60.5978 48.9873 60.4319 48.1761C60.3029 47.5862 60.1001 47.1806 59.8235 46.9593C59.547 46.7196 59.169 46.5998 58.6897 46.5998C58.1735 46.5998 57.5466 46.7381 56.8092 47.0146L56.422 46.0191L64.0547 42.9218H65.2715ZM80.7204 42.9218C84.5552 42.9218 87.634 44.3782 89.957 47.2912C91.9297 49.7801 92.9161 52.6377 92.9161 55.8641C92.9161 58.1318 92.3722 60.4271 91.2844 62.7501C90.1967 65.0731 88.6941 66.8245 86.7767 68.0044C84.8778 69.1844 82.7576 69.7743 80.4162 69.7743C76.5999 69.7743 73.5671 68.2533 71.3178 65.2113C69.4189 62.6487 68.4694 59.7726 68.4694 56.5831C68.4694 54.2601 69.041 51.9556 70.184 49.6695C71.3455 47.3649 72.8665 45.6688 74.747 44.581C76.6275 43.4748 78.6186 42.9218 80.7204 42.9218ZM79.8631 44.7193C78.886 44.7193 77.8996 45.0143 76.9041 45.6042C75.9269 46.1758 75.1342 47.1898 74.5258 48.6462C73.9174 50.1027 73.6132 51.974 73.6132 54.2601C73.6132 57.9474 74.3414 61.1277 75.7979 63.8009C77.2728 66.4742 79.2086 67.8109 81.6053 67.8109C83.3937 67.8109 84.8686 67.0734 86.0301 65.5985C87.1916 64.1236 87.7723 61.5886 87.7723 57.9935C87.7723 53.495 86.8044 49.9552 84.8686 47.3741C83.5596 45.6042 81.8911 44.7193 79.8631 44.7193Z" fill="white"/>
<path d="M39.3514 36.2017L38.9405 36.5962L38.9425 36.5983L39.3514 36.2017ZM13.2455 64.354L12.8335 64.7474L12.8345 64.7485L13.2455 64.354ZM14.0751 35.538L13.688 35.1202L13.6878 35.1203L14.0751 35.538ZM18.1127 36.3953L18.5541 36.7553L18.5543 36.7551L18.1127 36.3953ZM18.251 64.1328L17.8047 64.4868L17.8065 64.489L18.251 64.1328ZM34.9267 63.7733L34.4903 63.4072L34.4888 63.4089L34.9267 63.7733ZM34.5948 36.4229L35.0394 36.0668L35.0377 36.0647L34.5948 36.4229ZM26.7133 30.6431V31.2128C31.416 31.2128 35.483 32.9954 38.9405 36.5962L39.3514 36.2017L39.7623 35.8072C36.1033 31.9965 31.7449 30.0735 26.7133 30.0735V30.6431ZM39.3514 36.2017L38.9425 36.5983C42.4077 40.1707 44.1468 44.6336 44.1468 50.029H44.7164H45.286C45.286 44.3625 43.4484 39.6073 39.7603 35.8051L39.3514 36.2017ZM44.7164 50.029H44.1468C44.1468 55.5944 42.3957 60.1776 38.912 63.8222L39.3237 64.2158L39.7355 64.6094C43.442 60.7318 45.286 55.8572 45.286 50.029H44.7164ZM39.3237 64.2158L38.912 63.8222C35.4221 67.4731 31.2189 69.2877 26.2708 69.2877V69.8573V70.4269C31.5365 70.4269 36.0352 68.4804 39.7355 64.6094L39.3237 64.2158ZM26.2708 69.8573V69.2877C21.2611 69.2877 17.0686 67.5146 13.6565 63.9596L13.2455 64.354L12.8345 64.7485C16.4651 68.5311 20.9561 70.4269 26.2708 70.4269V69.8573ZM13.2455 64.354L13.6575 63.9607C10.2709 60.4136 8.56075 55.8148 8.56075 50.1119H7.99113H7.42151C7.42151 56.0609 9.21431 60.9568 12.8335 64.7474L13.2455 64.354ZM7.99113 50.1119H8.56075C8.56075 44.3019 10.5323 39.6 14.4624 35.9557L14.0751 35.538L13.6878 35.1203C9.50598 38.998 7.42151 44.012 7.42151 50.1119H7.99113ZM14.0751 35.538L14.4623 35.9558C17.8759 32.7924 21.9493 31.2128 26.7133 31.2128V30.6431V30.0735C21.669 30.0735 17.3171 31.7571 13.688 35.1202L14.0751 35.538ZM26.1878 32.6619V32.0923C22.6701 32.0923 19.8128 33.407 17.6711 36.0355L18.1127 36.3953L18.5543 36.7551C20.4686 34.4057 22.9947 33.2315 26.1878 33.2315V32.6619ZM18.1127 36.3953L17.6712 36.0353C15.0302 39.2739 13.7544 43.9592 13.7544 50.0013H14.324H14.8936C14.8936 44.0967 16.1436 39.7113 18.5541 36.7553L18.1127 36.3953ZM14.324 50.0013H13.7544C13.7544 56.1943 15.0777 61.0493 17.8047 64.4868L18.251 64.1328L18.6972 63.7788C16.1883 60.6161 14.8936 56.0501 14.8936 50.0013H14.324ZM18.251 64.1328L17.8065 64.489C19.9275 67.1354 22.7479 68.4634 26.2155 68.4634V67.8938V67.3242C23.0828 67.3242 20.5936 66.1448 18.6954 63.7766L18.251 64.1328ZM26.2155 67.8938V68.4634C29.9089 68.4634 32.972 67.0125 35.3645 64.1377L34.9267 63.7733L34.4888 63.4089C32.3091 66.0281 29.5647 67.3242 26.2155 67.3242V67.8938ZM34.9267 63.7733L35.3631 64.1394C37.7942 61.2415 38.9531 56.7469 38.9531 50.7757H38.3835H37.8139C37.8139 56.6405 36.6682 60.8111 34.4903 63.4072L34.9267 63.7733ZM38.3835 50.7757H38.9531C38.9531 44.3016 37.6816 39.3648 35.0394 36.0668L34.5948 36.4229L34.1503 36.7791C36.5596 39.7863 37.8139 44.418 37.8139 50.7757H38.3835ZM34.5948 36.4229L35.0377 36.0647C32.8888 33.4079 29.9151 32.0923 26.1878 32.0923V32.6619V33.2315C29.6138 33.2315 32.2448 34.4232 34.1519 36.7812L34.5948 36.4229ZM53.4453 29.6752H54.0149V29.1056H53.4453V29.6752ZM53.7771 66.4281L53.2536 66.6525L53.2569 66.6603L53.2605 66.668L53.7771 66.4281ZM54.8556 67.6173L54.571 68.1107L54.5782 68.1148L54.5856 68.1188L54.8556 67.6173ZM57.5381 68.0044H58.1078V67.4348H57.5381V68.0044ZM57.5381 69V69.5696H58.1078V69H57.5381ZM45.1212 69H44.5516V69.5696H45.1212V69ZM45.1212 68.0044V67.4348H44.5516V68.0044H45.1212ZM48.661 35.0126L48.1019 35.1213L48.1025 35.1243L48.661 35.0126ZM48.025 33.6575L47.6519 34.0879L47.6587 34.0939L47.6658 34.0996L48.025 33.6575ZM45.1212 33.7404L44.6089 33.9893L44.8405 34.4662L45.3328 34.2693L45.1212 33.7404ZM44.6511 32.7725L44.4349 32.2455L43.8737 32.4758L44.1387 33.0214L44.6511 32.7725ZM52.2008 29.6752V29.1056H52.0885L51.9846 29.1482L52.2008 29.6752ZM53.4453 29.6752H52.8756V63.2755H53.4453H54.0149V29.6752H53.4453ZM53.4453 63.2755H52.8756C52.8756 64.0794 52.9036 64.76 52.9617 65.3124C53.0187 65.854 53.1086 66.3143 53.2536 66.6525L53.7771 66.4281L54.3007 66.2037C54.2244 66.0257 54.1483 65.7025 54.0947 65.1932C54.0422 64.6947 54.0149 64.0571 54.0149 63.2755H53.4453ZM53.7771 66.4281L53.2605 66.668C53.548 67.2874 53.987 67.7738 54.571 68.1107L54.8556 67.6173L55.1403 67.1239C54.7656 66.9077 54.4855 66.6013 54.2938 66.1883L53.7771 66.4281ZM54.8556 67.6173L54.5856 68.1188C54.9101 68.2936 55.3289 68.4028 55.8044 68.4714C56.2874 68.5411 56.8674 68.5741 57.5381 68.5741V68.0044V67.4348C56.8999 67.4348 56.3783 67.4032 55.9671 67.3439C55.5485 67.2834 55.2805 67.1991 55.1257 67.1157L54.8556 67.6173ZM57.5381 68.0044H56.9685V69H57.5381H58.1078V68.0044H57.5381ZM57.5381 69V68.4304H45.1212V69V69.5696H57.5381V69ZM45.1212 69H45.6909V68.0044H45.1212H44.5516V69H45.1212ZM45.1212 68.0044V68.5741C45.719 68.5741 46.2381 68.5434 46.6721 68.4778C47.0986 68.4133 47.4809 68.3098 47.7798 68.1408L47.4995 67.6449L47.2192 67.149C47.0942 67.2197 46.8681 67.296 46.5018 67.3513C46.143 67.4056 45.6849 67.4348 45.1212 67.4348V68.0044ZM47.4995 67.6449L47.7798 68.1408C48.3353 67.8268 48.7407 67.3216 49.0178 66.6823L48.4951 66.4558L47.9724 66.2293C47.7701 66.6962 47.5118 66.9837 47.2192 67.149L47.4995 67.6449ZM48.4951 66.4558L49.0178 66.6823C49.1709 66.3288 49.2686 65.8599 49.3307 65.3099C49.3939 64.7513 49.4242 64.0715 49.4242 63.2755H48.8546H48.285C48.285 64.0466 48.2554 64.6804 48.1987 65.1819C48.1411 65.692 48.059 66.0296 47.9724 66.2293L48.4951 66.4558ZM48.8546 63.2755H49.4242V40.2669H48.8546H48.285V63.2755H48.8546ZM48.8546 40.2669H49.4242C49.4242 38.8349 49.4081 37.6748 49.3754 36.7891C49.3433 35.917 49.2943 35.2745 49.2196 34.9008L48.661 35.0126L48.1025 35.1243C48.1568 35.3959 48.2046 35.9517 48.237 36.8311C48.2689 37.6969 48.285 38.8413 48.285 40.2669H48.8546ZM48.661 35.0126L49.2202 34.9038C49.0834 34.2005 48.8374 33.5837 48.3842 33.2154L48.025 33.6575L47.6658 34.0996C47.8025 34.2106 47.9805 34.4972 48.1019 35.1213L48.661 35.0126ZM48.025 33.6575L48.398 33.227C47.9973 32.8797 47.496 32.7283 46.9464 32.7283V33.298V33.8676C47.2818 33.8676 47.4995 33.9559 47.6519 34.0879L48.025 33.6575ZM46.9464 33.298V32.7283C46.3624 32.7283 45.676 32.905 44.9097 33.2116L45.1212 33.7404L45.3328 34.2693C46.0413 33.9859 46.5718 33.8676 46.9464 33.8676V33.298ZM45.1212 33.7404L45.6336 33.4916L45.1635 32.5237L44.6511 32.7725L44.1387 33.0214L44.6089 33.9893L45.1212 33.7404ZM44.6511 32.7725L44.8673 33.2995L52.417 30.2022L52.2008 29.6752L51.9846 29.1482L44.4349 32.2455L44.6511 32.7725ZM52.2008 29.6752V30.2448H53.4453V29.6752V29.1056H52.2008V29.6752ZM64.9396 30.5049L64.53 30.9008L64.5368 30.9077L64.5437 30.9144L64.9396 30.5049ZM64.9396 34.4595L64.5368 34.0566L64.53 34.0636L64.9396 34.4595ZM60.9573 30.5049L61.3601 30.9076L60.9573 30.5049ZM65.2715 42.9218H65.8411V42.3521H65.2715V42.9218ZM65.6033 66.4558L65.077 66.6736L65.0816 66.6847L65.0867 66.6957L65.6033 66.4558ZM66.6265 67.6173L66.3395 68.1094L66.3482 68.1143L66.6265 67.6173ZM69.1154 68.0044H69.6851V67.4348H69.1154V68.0044ZM69.1154 69V69.5696H69.6851V69H69.1154ZM56.8092 69H56.2395V69.5696H56.8092V69ZM56.8092 68.0044V67.4348H56.2395V68.0044H56.8092ZM60.2936 66.4558L59.7775 66.2149L59.7741 66.222L59.771 66.2293L60.2936 66.4558ZM60.4319 48.1761L60.99 48.062L60.9884 48.0544L60.4319 48.1761ZM59.8235 46.9593L59.4504 47.3898L59.4589 47.3971L59.4677 47.4041L59.8235 46.9593ZM56.8092 47.0146L56.2783 47.2211L56.4822 47.7456L57.0092 47.548L56.8092 47.0146ZM56.422 46.0191L56.2078 45.4912L55.6876 45.7023L55.8911 46.2255L56.422 46.0191ZM64.0547 42.9218V42.3521H63.9435L63.8405 42.3939L64.0547 42.9218ZM62.9761 29.6752V30.2448C63.5972 30.2448 64.1035 30.4595 64.53 30.9008L64.9396 30.5049L65.3491 30.109C64.7064 29.444 63.9037 29.1056 62.9761 29.1056V29.6752ZM64.9396 30.5049L64.5437 30.9144C64.9849 31.3409 65.1996 31.8473 65.1996 32.4683H65.7692H66.3389C66.3389 31.5407 66.0004 30.7381 65.3355 30.0953L64.9396 30.5049ZM65.7692 32.4683H65.1996C65.1996 33.0899 64.9843 33.6092 64.5368 34.0567L64.9396 34.4595L65.3424 34.8622C66.0011 34.2035 66.3389 33.3955 66.3389 32.4683H65.7692ZM64.9396 34.4595L64.53 34.0636C64.1035 34.5048 63.5972 34.7195 62.9761 34.7195V35.2891V35.8587C63.9037 35.8587 64.7064 35.5203 65.3491 34.8554L64.9396 34.4595ZM62.9761 35.2891V34.7195C62.3546 34.7195 61.8353 34.5042 61.3878 34.0567L60.985 34.4595L60.5822 34.8622C61.2409 35.5209 62.049 35.8587 62.9761 35.8587V35.2891ZM60.985 34.4595L61.3878 34.0567C60.9403 33.6092 60.725 33.0899 60.725 32.4683H60.1554H59.5857C59.5857 33.3955 59.9235 34.2035 60.5822 34.8622L60.985 34.4595ZM60.1554 32.4683H60.725C60.725 31.841 60.9351 31.3326 61.3601 30.9076L60.9573 30.5049L60.5546 30.1021C59.9102 30.7464 59.5857 31.547 59.5857 32.4683H60.1554ZM60.9573 30.5049L61.3601 30.9076C61.8048 30.463 62.3321 30.2448 62.9761 30.2448V29.6752V29.1056C62.0346 29.1056 61.2161 29.4406 60.5546 30.1021L60.9573 30.5049ZM65.2715 42.9218H64.7018V63.2755H65.2715H65.8411V42.9218H65.2715ZM65.2715 63.2755H64.7018C64.7018 64.0795 64.7298 64.7622 64.7879 65.3188C64.8449 65.8658 64.9346 66.3296 65.077 66.6736L65.6033 66.4558L66.1296 66.238C66.0507 66.0473 65.9745 65.7138 65.921 65.2006C65.8684 64.6972 65.8411 64.057 65.8411 63.2755H65.2715ZM65.6033 66.4558L65.0867 66.6957C65.3696 67.3052 65.7855 67.7861 66.3395 68.1093L66.6265 67.6173L66.9135 67.1252C66.5826 66.9322 66.3163 66.6388 66.12 66.2159L65.6033 66.4558ZM66.6265 67.6173L66.3482 68.1143C66.9498 68.4512 67.914 68.5741 69.1154 68.5741V68.0044V67.4348C67.9201 67.4348 67.2251 67.2996 66.9048 67.1203L66.6265 67.6173ZM69.1154 68.0044H68.5458V69H69.1154H69.6851V68.0044H69.1154ZM69.1154 69V68.4304H56.8092V69V69.5696H69.1154V69ZM56.8092 69H57.3788V68.0044H56.8092H56.2395V69H56.8092ZM56.8092 68.0044V68.5741C57.4426 68.5741 57.9881 68.5435 58.4392 68.4783C58.881 68.4145 59.2758 68.3118 59.5784 68.1408L59.2981 67.6449L59.0178 67.149C58.8963 67.2177 58.6643 67.2948 58.2764 67.3508C57.8979 67.4055 57.411 67.4348 56.8092 67.4348V68.0044ZM59.2981 67.6449L59.5784 68.1408C60.1339 67.8268 60.5392 67.3216 60.8163 66.6823L60.2936 66.4558L59.771 66.2293C59.5687 66.6962 59.3103 66.9837 59.0178 67.149L59.2981 67.6449ZM60.2936 66.4558L60.8098 66.6967C60.9764 66.3396 61.0822 65.8668 61.1495 65.3147C61.2177 64.754 61.2504 64.0725 61.2504 63.2755H60.6808H60.1112C60.1112 64.0456 60.0793 64.6777 60.0186 65.1771C59.9567 65.6851 59.869 66.0188 59.7775 66.2149L60.2936 66.4558ZM60.6808 63.2755H61.2504V53.5135H60.6808H60.1112V63.2755H60.6808ZM60.6808 53.5135H61.2504C61.2504 50.7806 61.1697 48.9404 60.99 48.062L60.4319 48.1761L59.8738 48.2903C60.026 49.0342 60.1112 50.7522 60.1112 53.5135H60.6808ZM60.4319 48.1761L60.9884 48.0544C60.8493 47.4187 60.6081 46.8575 60.1793 46.5145L59.8235 46.9593L59.4677 47.4041C59.592 47.5036 59.7564 47.7536 59.8754 48.2978L60.4319 48.1761ZM59.8235 46.9593L60.1966 46.5289C59.7879 46.1747 59.2628 46.0302 58.6897 46.0302V46.5998V47.1694C59.0752 47.1694 59.306 47.2646 59.4504 47.3898L59.8235 46.9593ZM58.6897 46.5998V46.0302C58.0791 46.0302 57.3805 46.192 56.6092 46.4813L56.8092 47.0146L57.0092 47.548C57.7128 47.2841 58.2678 47.1694 58.6897 47.1694V46.5998ZM56.8092 47.0146L57.34 46.8082L56.9529 45.8126L56.422 46.0191L55.8911 46.2255L56.2783 47.2211L56.8092 47.0146ZM56.422 46.0191L56.6362 46.5469L64.2688 43.4496L64.0547 42.9218L63.8405 42.3939L56.2078 45.4912L56.422 46.0191ZM64.0547 42.9218V43.4914H65.2715V42.9218V42.3521H64.0547V42.9218ZM89.957 47.2912L90.4034 46.9374L90.4024 46.936L89.957 47.2912ZM86.7767 68.0044L86.4782 67.5193L86.4761 67.5206L86.7767 68.0044ZM71.3178 65.2113L71.7759 64.8727L71.7755 64.8722L71.3178 65.2113ZM70.184 49.6695L69.6753 49.4131L69.6745 49.4147L70.184 49.6695ZM74.747 44.581L75.0322 45.0741L75.0358 45.072L74.747 44.581ZM76.9041 45.6042L77.1917 46.0959L77.1945 46.0943L76.9041 45.6042ZM75.7979 63.8009L75.2977 64.0735L75.2991 64.0761L75.7979 63.8009ZM84.8686 47.3741L84.4106 47.7129L84.4129 47.7159L84.8686 47.3741ZM80.7204 42.9218V43.4914C84.3877 43.4914 87.3004 44.8735 89.5117 47.6463L89.957 47.2912L90.4024 46.936C87.9677 43.883 84.7226 42.3521 80.7204 42.3521V42.9218ZM89.957 47.2912L89.5106 47.645C91.4021 50.0315 92.3464 52.764 92.3464 55.8641H92.9161H93.4857C93.4857 52.5115 92.4573 49.5287 90.4034 46.9374L89.957 47.2912ZM92.9161 55.8641H92.3464C92.3464 58.0379 91.8256 60.2512 90.7686 62.5085L91.2844 62.7501L91.8003 62.9916C92.9188 60.603 93.4857 58.2256 93.4857 55.8641H92.9161ZM91.2844 62.7501L90.7686 62.5085C89.7212 64.7453 88.2882 66.4055 86.4782 67.5193L86.7767 68.0044L87.0753 68.4896C89.1 67.2436 90.6722 65.4008 91.8003 62.9916L91.2844 62.7501ZM86.7767 68.0044L86.4761 67.5206C84.6718 68.6417 82.6566 69.2047 80.4162 69.2047V69.7743V70.3439C82.8586 70.3439 85.0838 69.727 87.0774 68.4883L86.7767 68.0044ZM80.4162 69.7743V69.2047C76.7787 69.2047 73.9166 67.7679 71.7759 64.8727L71.3178 65.2113L70.8598 65.55C73.2176 68.7387 76.4211 70.3439 80.4162 70.3439V69.7743ZM71.3178 65.2113L71.7755 64.8722C69.9493 62.4077 69.039 59.6505 69.039 56.5831H68.4694H67.8998C67.8998 59.8947 68.8885 62.8897 70.8602 65.5505L71.3178 65.2113ZM68.4694 56.5831H69.039C69.039 54.3571 69.586 52.1393 70.6935 49.9242L70.184 49.6695L69.6745 49.4147C68.496 51.7719 67.8998 54.1631 67.8998 56.5831H68.4694ZM70.184 49.6695L70.6927 49.9258C71.8138 47.7013 73.2645 46.0966 75.0322 45.0741L74.747 44.581L74.4618 44.088C72.4686 45.2409 70.8772 47.0285 69.6753 49.4131L70.184 49.6695ZM74.747 44.581L75.0358 45.072C76.8323 44.0153 78.7242 43.4914 80.7204 43.4914V42.9218V42.3521C78.5131 42.3521 76.4228 42.9344 74.4582 44.0901L74.747 44.581ZM79.8631 44.7193V44.1497C78.7664 44.1497 77.6808 44.4818 76.6137 45.1142L76.9041 45.6042L77.1945 46.0943C78.1184 45.5467 79.0056 45.2889 79.8631 45.2889V44.7193ZM76.9041 45.6042L76.6165 45.1126C75.4977 45.767 74.6379 46.9001 74.0002 48.4267L74.5258 48.6462L75.0514 48.8658C75.6305 47.4795 76.3562 46.5846 77.1917 46.0959L76.9041 45.6042ZM74.5258 48.6462L74.0002 48.4267C73.3528 49.9765 73.0436 51.9297 73.0436 54.2601H73.6132H74.1828C74.1828 52.0184 74.482 50.2289 75.0514 48.8658L74.5258 48.6462ZM73.6132 54.2601H73.0436C73.0436 58.0226 73.787 61.3006 75.2977 64.0735L75.7979 63.8009L76.2981 63.5284C74.8959 60.9547 74.1828 57.8722 74.1828 54.2601H73.6132ZM75.7979 63.8009L75.2991 64.0761C76.8422 66.873 78.9424 68.3805 81.6053 68.3805V67.8109V67.2412C79.4749 67.2412 77.7034 66.0755 76.2966 63.5258L75.7979 63.8009ZM81.6053 67.8109V68.3805C83.5781 68.3805 85.2143 67.5551 86.4776 65.9509L86.0301 65.5985L85.5826 65.2461C84.5228 66.5917 83.2093 67.2412 81.6053 67.2412V67.8109ZM86.0301 65.5985L86.4776 65.9509C87.7635 64.318 88.3419 61.6159 88.3419 57.9935H87.7723H87.2027C87.2027 61.5612 86.6196 63.9292 85.5826 65.2461L86.0301 65.5985ZM87.7723 57.9935H88.3419C88.3419 53.4193 87.3582 49.7443 85.3243 47.0324L84.8686 47.3741L84.4129 47.7159C86.2506 50.1662 87.2027 53.5708 87.2027 57.9935H87.7723ZM84.8686 47.3741L85.3266 47.0354C83.9208 45.1347 82.089 44.1497 79.8631 44.1497V44.7193V45.2889C81.6933 45.2889 83.1984 46.0738 84.4106 47.7128L84.8686 47.3741Z" fill="white"/>
</svg>
